PathFileType	4	(X/Y/Z)	C:/Users/beibeiliu/ov580/test_trc/User1\sequence.7_training_dense_left.trc
DataRate	CameraRate	NumFrames	NumMarkers	Units	OrigDataRate	OrigDataStartFrame	OrigNumFrames
120	120	12	19	mm	120	74	295
Frame#	Time	ThumbCMC			ThumbMCP			ThumbIP			ThumbTip			IndexMCP			IndexPIP			IndexTip			MiddleMCP			MiddlePIP			MiddleTip			RingMCP			RingPIP			RingTip			PinkyMCP			PinkyPIP			PinkyTip			BackHand1			BackHand2			BackHand3	
		X0	Y0	Z0	X1	Y1	Z1	X2	Y2	Z2	X3	Y3	Z3	X4	Y4	Z4	X5	Y5	Z5	X6	Y6	Z6	X7	Y7	Z7	X8	Y8	Z8	X9	Y9	Z9	X10	Y10	Z10	X11	Y11	Z11	X12	Y12	Z12	X13	Y13	Z13	X14	Y14	Z14	X15	Y15	Z15	X16	Y16	Z16	X17	Y17	Z17	X18	Y18	Z18	
73	0.608333	-145.336	116.962	24.4424	-133.513	97.0243	-8.30369	-129.231	86.9601	-38.0223	-136.054	73.2782	-59.5524	-153.029	153.936	-51.4773	-152.738	158.192	-82.3091	-154.861	146.567	-111.945	-166.609	129.562	-69.7134	-157.153	98.4357	-79.0437	-153.936	83.585	-39.1264	-185.413	112.363	-64.9382	-169.696	79.8035	-61.2754	-169.829	76.6104	-27.0489	-204.574	101.469	-56.2369	-189.899	76.0111	-53.5742	-178.397	81.8931	-21.3144	-203.864	138.716	-10.8411	-214.846	134.489	21.8239	-176.544	146.371	11.769	
74	0.616667	-144.927	112.839	22.3482	-131.001	89.4343	-8.3553	-132.066	81.7009	-39.4282	-139.505	69.5446	-61.5991	-147.63	151.007	-51.6649	-148.852	155.707	-80.6883	-147.128	150.065	-109.543	-164.317	128.719	-71.546	-159.031	96.5346	-78.3114	-154.333	80.4802	-43.4594	-184.448	115.543	-63.2974	-176.65	78.1695	-61.3813	-174.706	75.308	-31.8782	-208.417	106.143	-53.9683	-193.641	82.4787	-53.846	-182.199	82.919	-21.9749	-203.354	139.469	-6.90292	-205.572	140.199	27.4346	-169.029	145.431	14.5185	
75	0.625	-139.518	109.095	21.4867	-133.772	86.0266	-9.81737	-132.079	77.8146	-37.054	-143.463	67.4847	-61.5421	-145.348	149.924	-51.2989	-144.494	154.095	-82.4264	-141.751	150.971	-108.598	-162.508	129.77	-69.7429	-161.038	95.8552	-78.8548	-158.85	80.4916	-40.1809	-186.807	114.596	-64.1418	-177.135	81.8149	-62.7979	-178.438	77.1533	-25.965	-206.149	111.754	-50.7683	-197.3	82.7476	-52.4678	-183.167	84.53	-20.4335	-193.693	144.266	-9.66732	-200.922	141.522	29.9765	-166.744	145.304	17.2216	
76	0.633333	-136.696	106.457	18.7143	-132.259	82.3337	-9.90241	-136.954	77.3466	-39.1564	-145.707	66.27	-64.0198	-135.939	147.257	-49.5748	-136.066	153.634	-79.9543	-141.59	149.954	-107.146	-160.809	128.111	-71.4526	-162.561	94.3316	-78.6916	-159.445	78.9338	-43.4087	-182.218	117.379	-63.3047	-182.538	80.6738	-60.7381	-181.373	77.3661	-29.4235	-207.081	112.753	-52.4778	-198.006	84.8565	-51.4252	-184.978	85.3509	-16.0383	-191.817	144.419	-4.92985	-199.992	144.82	25.9733	-161.403	145.713	13.0408	
77	0.641667	-139.504	105.404	20.0429	-135.072	82.692	-11.9311	-136.446	73.2158	-40.393	-147.835	66.0274	-63.1377	-136.667	146.251	-51.1217	-134.963	153.005	-80.6177	-139.447	151.789	-109.628	-158.265	128.787	-70.242	-160.668	96.1929	-79.4443	-163.763	80.6768	-42.8877	-183.517	116.968	-64.0328	-184.343	82.4465	-59.7184	-181.676	78.9681	-26.5175	-203.806	115.301	-53.2534	-196.583	86.6953	-49.2132	-185.438	87.9746	-20.9073	-189.545	149.465	-6.83155	-195.66	144.847	28.2224	-158.524	145.207	13.0845	
78	0.65	-134.487	101.651	20.1921	-134.159	81.385	-14.6667	-137.906	73.6544	-40.659	-151.039	68.8733	-63.6115	-133.809	144.924	-53.8455	-131.972	151.537	-78.685	-137.045	151.323	-106.461	-161.966	129.617	-68.2045	-162.366	91.8904	-76.8819	-160.991	79.4593	-42.1568	-182.812	120.505	-62.221	-186.073	83.5581	-61.2733	-182.207	77.6239	-30.8903	-203.843	119.519	-48.9232	-196.626	87.7129	-48.0636	-185.478	87.1692	-19.1572	-184.578	146.49	-3.80781	-190.593	144.658	27.5613	-152.683	141.078	14.6279	
79	0.658333	-135.089	100.952	17.3117	-133.543	78.5386	-14.1961	-135.857	70.1961	-43.0775	-150.462	65.8306	-66.3348	-134.165	143.039	-52.8931	-134.53	150.639	-84.1452	-136.414	150.823	-107.401	-161.012	127.379	-70.0045	-162.009	94.6844	-79.0994	-164.556	80.2529	-42.5933	-181.44	117.037	-65.5747	-186.214	84.7122	-61.0952	-180.588	77.3782	-30.438	-203.204	119.433	-50.3607	-199.723	89.4656	-50.8667	-186.354	86.4731	-20.8401	-184.438	147.096	-4.01339	-185.684	147.187	27.6879	-150.337	142.36	13.7776	
80	0.666667	-135.559	100.662	16.3687	-132.174	75.1442	-12.3794	-138.375	72.0812	-42.5764	-151.66	65.0411	-63.9352	-132.693	144.021	-57.2058	-135.294	149.426	-85.7406	-136.638	146.874	-112.597	-160.284	125.933	-70.6803	-165.001	91.1081	-77.7535	-162.672	79.5162	-42.3411	-180.105	118.488	-62.7781	-182.476	85.7334	-62.9112	-177.883	78.2557	-27.656	-205.941	117.19	-52.0155	-196.815	91.6351	-50.0907	-186.312	85.3208	-19.8219	-182.943	150.457	-9.48727	-182.541	145.029	28.2229	-148.622	140.685	13.9616	
81	0.675	-131.404	97.1926	17.6743	-132.895	74.5414	-14.5453	-137.271	68.9559	-43.0567	-152.078	62.4815	-64.2713	-131.879	140.455	-55.2055	-136.748	147.118	-82.9408	-143.037	141.832	-113.216	-156.502	123.525	-71.1074	-160.954	89.6842	-78.4501	-165.622	78.8456	-40.0424	-182.393	117.07	-62.2222	-186.262	83.977	-61.9302	-178.12	76.9893	-25.6947	-200.585	115.607	-51.6297	-196.174	89.1384	-49.0711	-187.382	84.081	-16.6947	-182.843	148.213	-6.98583	-186.357	145.254	26.7619	-148.533	139.076	12.49	
82	0.683333	-131.875	97.654	16.8119	-134.297	74.5946	-11.1419	-139.368	68.2196	-43.5879	-153.6	64.8538	-64.799	-130.936	140.727	-55.6038	-135.122	145.496	-84.1629	-145.708	136.041	-111.872	-158.247	124.734	-69.0821	-163.252	87.3004	-76.835	-164.185	78.3475	-39.1657	-182.199	115.146	-63.7004	-187.124	82.3994	-60.8721	-177.751	75.4024	-28.0958	-202.461	118.172	-48.2793	-199.008	87.0757	-49.2333	-187.76	83.1195	-19.148	-178.199	147.234	-9.55033	-181.997	145.391	27.5371	-149.037	140.002	14.2681	
83	0.691667	-134.606	96.9157	19.2204	-132.841	71.7904	-13.1082	-139.753	68.1738	-41.6407	-154.023	62.0479	-65.7412	-131.697	138.352	-54.8603	-138.197	142.893	-86.2794	-145.525	128.585	-112.352	-161.794	122.469	-73.4212	-167.267	88.5171	-78.1209	-165.74	77.2159	-42.6482	-182.496	115.035	-63.1546	-186.831	81.0115	-61.7929	-182.037	74.3984	-26.9305	-205.257	115.63	-48.8012	-202.184	85.5214	-48.6055	-184.844	83.6592	-18.353	-182.222	145.743	-9.55463	-186.076	144.245	27.033	-147.941	138.968	11.8254	
84	0.7	-132.233	97.3223	15.1227	-133.558	72.1767	-15.4492	-136.898	63.9961	-43.6432	-154.73	59.8623	-65.116	-132.96	138.052	-54.5819	-141.261	138.804	-89.9712	-145.064	120.829	-111.007	-159.251	120.552	-73.6019	-167.762	89.2491	-80.8563	-162.824	74.9388	-42.9072	-184.988	113.217	-64.5719	-184.937	77.7349	-60.1034	-179.953	73.0233	-27.2282	-202.486	113.117	-51.2764	-201.901	84.0589	-47.685	-184.328	81.4942	-19.4685	-182.926	147.475	-9.99257	-184.474	143.088	28.8957	-147	138.482	11.4749	
